HIERARCHY
ROOT CG
{
	OFFSET 0.000000 0.000000 27.772259
	CHANNELS 6 Xposition Yposition Zposition Xrotation Yrotation Zrotation
	JOINT Pelvis
	{
		OFFSET 0.000000 0.000000 0.000000
		CHANNELS 3 Xrotation Yrotation Zrotation
		JOINT Spine
		{
			OFFSET -0.000017 -10.490843 -0.495483
			CHANNELS 3 Xrotation Yrotation Zrotation
			JOINT Spine1
			{
				OFFSET -0.000010 -22.678980 0.018061
				CHANNELS 3 Xrotation Yrotation Zrotation
				JOINT Spine2
				{
					OFFSET -0.000010 -22.678967 0.018061
					CHANNELS 3 Xrotation Yrotation Zrotation
					JOINT Spine3
					{
						OFFSET -0.000010 -22.678982 0.018059
						CHANNELS 3 Xrotation Yrotation Zrotation
						JOINT Neck
						{
							OFFSET -0.000012 -22.678986 -1.289251
							CHANNELS 3 Xrotation Yrotation Zrotation
							JOINT Neck1
							{
								OFFSET -0.000007 -16.255905 0.012947
								CHANNELS 3 Xrotation Yrotation Zrotation
								JOINT Head
								{
									OFFSET -0.000005 -10.784607 -0.287502
									CHANNELS 3 Xrotation Yrotation Zrotation
									JOINT Jaw01
									{
										OFFSET 0.000031 7.782959 5.073944
										CHANNELS 3 Xrotation Yrotation Zrotation
										JOINT Jaw02
										{
											OFFSET 0.000004 -34.927139 -18.883980
											CHANNELS 3 Xrotation Yrotation Zrotation
											End Site
											{
												OFFSET -0.000170 8.372803 -38.812450
											}
										}
									}
									JOINT Nose
									{
										OFFSET -0.000002 -25.700912 7.222265
										CHANNELS 3 Xrotation Yrotation Zrotation
										End Site
										{
											OFFSET -0.000090 0.641281 -21.715439
										}
									}
									JOINT L_EyeSocket
									{
										OFFSET 7.352326 -19.832718 14.164183
										CHANNELS 3 Xrotation Yrotation Zrotation
										JOINT L_Eye
										{
											OFFSET -0.000868 -0.001053 0.016003
											CHANNELS 3 Xrotation Yrotation Zrotation
											End Site
											{
												OFFSET -0.001505 -0.001846 0.027969
											}
										}
										JOINT L_Eyelid_Top
										{
											OFFSET -0.001004 -0.002625 0.032516
											CHANNELS 3 Xrotation Yrotation Zrotation
											End Site
											{
												OFFSET -0.013218 0.005753 0.024086
											}
										}
										JOINT L_Eyelid_Bottom
										{
											OFFSET -0.001194 -0.002777 0.035381
											CHANNELS 3 Xrotation Yrotation Zrotation
											End Site
											{
												OFFSET -0.010032 0.008636 -0.024754
											}
										}
									}
									JOINT R_EyeSocket
									{
										OFFSET -7.352252 -19.832748 14.164206
										CHANNELS 3 Xrotation Yrotation Zrotation
										JOINT R_Eye
										{
											OFFSET 0.000875 -0.001068 0.015991
											CHANNELS 3 Xrotation Yrotation Zrotation
											End Site
											{
												OFFSET 0.001505 -0.001846 0.027962
											}
										}
										JOINT R_Eyelid_Top
										{
											OFFSET 0.001021 -0.002625 0.032516
											CHANNELS 3 Xrotation Yrotation Zrotation
											End Site
											{
												OFFSET 0.013214 0.005753 0.024078
											}
										}
										JOINT R_Eyelid_Bottom
										{
											OFFSET 0.001170 -0.002762 0.035366
											CHANNELS 3 Xrotation Yrotation Zrotation
											End Site
											{
												OFFSET 0.010029 0.008636 -0.024746
											}
										}
									}
								}
								JOINT Neck_Fat
								{
									OFFSET 0.000044 -9.595100 -17.491512
									CHANNELS 3 Xrotation Yrotation Zrotation
									End Site
									{
										OFFSET -0.000036 15.369423 -0.000007
									}
								}
							}
						}
						JOINT L_Clavicle
						{
							OFFSET 4.567107 -11.666092 -3.750029
							CHANNELS 3 Xrotation Yrotation Zrotation
							JOINT L_UpperArm
							{
								OFFSET 20.725666 -0.000053 -0.000032
								CHANNELS 3 Xrotation Yrotation Zrotation
								JOINT L_Forearm
								{
									OFFSET 5.265112 -0.585754 -20.155697
									CHANNELS 3 Xrotation Yrotation Zrotation
									JOINT L_Hand
									{
										OFFSET 2.653017 -10.877708 -16.383667
										CHANNELS 3 Xrotation Yrotation Zrotation
										JOINT L_Finger0
										{
											OFFSET -4.206146 -4.328911 -5.034346
											CHANNELS 3 Xrotation Yrotation Zrotation
											JOINT L_Finger01
											{
												OFFSET 0.084272 -1.788536 -4.181065
												CHANNELS 3 Xrotation Yrotation Zrotation
												End Site
												{
													OFFSET 3.261885 3.094673 -0.685818
												}
											}
										}
										JOINT L_Finger1
										{
											OFFSET -1.039112 -6.775742 -3.499998
											CHANNELS 3 Xrotation Yrotation Zrotation
											JOINT L_Finger11
											{
												OFFSET 1.320335 -3.040672 -6.425793
												CHANNELS 3 Xrotation Yrotation Zrotation
												End Site
												{
													OFFSET -1.244579 6.832077 -2.013330
												}
											}
										}
										JOINT L_Finger2
										{
											OFFSET 2.531296 -5.656487 -3.286415
											CHANNELS 3 Xrotation Yrotation Zrotation
											JOINT L_Finger21
											{
												OFFSET 1.991665 -2.402016 -5.957748
												CHANNELS 3 Xrotation Yrotation Zrotation
												End Site
												{
													OFFSET -2.793068 5.800873 -1.944178
												}
											}
										}
										JOINT L_Finger3
										{
											OFFSET 5.474075 -3.302338 -2.655975
											CHANNELS 3 Xrotation Yrotation Zrotation
											JOINT L_Finger31
											{
												OFFSET 2.026943 -1.267532 -5.961166
												CHANNELS 3 Xrotation Yrotation Zrotation
												End Site
												{
													OFFSET -4.375172 4.343658 -1.800320
												}
											}
										}
										JOINT L_Finger4
										{
											OFFSET 4.825745 1.085899 -2.321970
											CHANNELS 3 Xrotation Yrotation Zrotation
											JOINT L_Finger41
											{
												OFFSET 3.358261 -1.829651 -3.744434
												CHANNELS 3 Xrotation Yrotation Zrotation
												End Site
												{
													OFFSET -3.843296 2.955200 -2.267633
												}
											}
										}
									}
								}
							}
						}
						JOINT R_Clavicle
						{
							OFFSET -4.567111 -11.666092 -3.750036
							CHANNELS 3 Xrotation Yrotation Zrotation
							JOINT R_UpperArm
							{
								OFFSET -20.725670 -0.000031 0.000038
								CHANNELS 3 Xrotation Yrotation Zrotation
								JOINT R_Forearm
								{
									OFFSET -5.265285 -0.585762 -20.155655
									CHANNELS 3 Xrotation Yrotation Zrotation
									JOINT R_Hand
									{
										OFFSET -2.653147 -10.877739 -16.383663
										CHANNELS 3 Xrotation Yrotation Zrotation
										JOINT R_Finger0
										{
											OFFSET 4.206116 -4.328888 -5.034388
											CHANNELS 3 Xrotation Yrotation Zrotation
											JOINT R_Finger01
											{
												OFFSET -0.084324 -1.788544 -4.181051
												CHANNELS 3 Xrotation Yrotation Zrotation
												End Site
												{
													OFFSET -3.261890 3.094666 -0.685791
												}
											}
										}
										JOINT R_Finger1
										{
											OFFSET 1.039101 -6.775711 -3.499994
											CHANNELS 3 Xrotation Yrotation Zrotation
											JOINT R_Finger11
											{
												OFFSET -1.320374 -3.040672 -6.425779
												CHANNELS 3 Xrotation Yrotation Zrotation
												End Site
												{
													OFFSET 1.244556 6.832077 -2.013342
												}
											}
										}
										JOINT R_Finger2
										{
											OFFSET -2.531307 -5.656464 -3.286409
											CHANNELS 3 Xrotation Yrotation Zrotation
											JOINT R_Finger21
											{
												OFFSET -1.991707 -2.402016 -5.957708
												CHANNELS 3 Xrotation Yrotation Zrotation
												End Site
												{
													OFFSET 2.793037 5.800858 -1.944197
												}
											}
										}
										JOINT R_Finger3
										{
											OFFSET -5.474091 -3.302330 -2.655947
											CHANNELS 3 Xrotation Yrotation Zrotation
											JOINT R_Finger31
											{
												OFFSET -2.026993 -1.267532 -5.961157
												CHANNELS 3 Xrotation Yrotation Zrotation
												End Site
												{
													OFFSET 4.375156 4.343674 -1.800358
												}
											}
										}
										JOINT R_Finger4
										{
											OFFSET -4.825756 1.085922 -2.321926
											CHANNELS 3 Xrotation Yrotation Zrotation
											JOINT R_Finger41
											{
												OFFSET -3.358307 -1.829651 -3.744390
												CHANNELS 3 Xrotation Yrotation Zrotation
												End Site
												{
													OFFSET 3.843273 2.955208 -2.267666
												}
											}
										}
									}
								}
							}
						}
					}
				}
			}
		}
		JOINT Tail01
		{
			OFFSET -0.000010 10.922326 -0.017508
			CHANNELS 3 Xrotation Yrotation Zrotation
			JOINT Tail02
			{
				OFFSET -0.000022 21.986111 0.000013
				CHANNELS 3 Xrotation Yrotation Zrotation
				JOINT Tail03
				{
					OFFSET -0.000022 21.986118 0.000002
					CHANNELS 3 Xrotation Yrotation Zrotation
					JOINT Tail04
					{
						OFFSET -0.000022 21.986122 0.000004
						CHANNELS 3 Xrotation Yrotation Zrotation
						JOINT Tail05
						{
							OFFSET -0.000022 21.986099 0.000010
							CHANNELS 3 Xrotation Yrotation Zrotation
							JOINT Tail06
							{
								OFFSET -0.000022 21.986099 0.000006
								CHANNELS 3 Xrotation Yrotation Zrotation
								JOINT Tail07
								{
									OFFSET -0.000022 21.986099 0.000000
									CHANNELS 3 Xrotation Yrotation Zrotation
									JOINT Tail08
									{
										OFFSET -0.000022 21.984848 0.000050
										CHANNELS 3 Xrotation Yrotation Zrotation
										JOINT Tail09
										{
											OFFSET -0.000025 21.926025 -1.606211
											CHANNELS 3 Xrotation Yrotation Zrotation
											JOINT Tail10
											{
												OFFSET -0.000027 21.750092 -3.203882
												CHANNELS 3 Xrotation Yrotation Zrotation
												End Site
												{
													OFFSET -0.000036 4.767395 21.461668
												}
											}
										}
									}
								}
							}
						}
					}
				}
			}
		}
		JOINT L_Thigh
		{
			OFFSET 24.788780 0.000021 -0.000034
			CHANNELS 3 Xrotation Yrotation Zrotation
			JOINT L_Calf
			{
				OFFSET 4.720837 4.161326 -21.049969
				CHANNELS 3 Xrotation Yrotation Zrotation
				JOINT L_Foot
				{
					OFFSET 2.154160 21.114433 -11.949743
					CHANNELS 3 Xrotation Yrotation Zrotation
					JOINT L_Toe0
					{
						OFFSET 4.557564 9.251841 -8.735286
						CHANNELS 3 Xrotation Yrotation Zrotation
						End Site
						{
							OFFSET 4.555542 -12.646044 1.018752
						}
					}
					JOINT L_Toe1
					{
						OFFSET 2.346291 5.845602 -11.687160
						CHANNELS 3 Xrotation Yrotation Zrotation
						End Site
						{
							OFFSET 5.347954 -12.298279 1.365644
						}
					}
					JOINT L_Toe2
					{
						OFFSET -0.356020 3.902458 -12.541145
						CHANNELS 3 Xrotation Yrotation Zrotation
						End Site
						{
							OFFSET 3.916235 -12.806129 1.542549
						}
					}
					JOINT L_Toe3
					{
						OFFSET -4.603447 3.183935 -12.435249
						CHANNELS 3 Xrotation Yrotation Zrotation
						End Site
						{
							OFFSET 3.810858 -12.587427 2.957583
						}
					}
					JOINT L_Toe4
					{
						OFFSET -7.144358 6.231495 -10.072764
						CHANNELS 3 Xrotation Yrotation Zrotation
						End Site
						{
							OFFSET 3.810858 -12.587425 2.957585
						}
					}
				}
			}
		}
		JOINT R_Thigh
		{
			OFFSET -24.788780 -0.000024 0.000034
			CHANNELS 3 Xrotation Yrotation Zrotation
			JOINT R_Calf
			{
				OFFSET -4.720922 4.161324 -21.049952
				CHANNELS 3 Xrotation Yrotation Zrotation
				JOINT R_Foot
				{
					OFFSET -2.154238 21.114414 -11.949730
					CHANNELS 3 Xrotation Yrotation Zrotation
					JOINT R_Toe0
					{
						OFFSET -4.557598 9.251823 -8.735270
						CHANNELS 3 Xrotation Yrotation Zrotation
						End Site
						{
							OFFSET -4.555508 -12.646051 1.018756
						}
					}
					JOINT R_Toe1
					{
						OFFSET -2.346325 5.845589 -11.687157
						CHANNELS 3 Xrotation Yrotation Zrotation
						End Site
						{
							OFFSET -5.347919 -12.298286 1.365654
						}
					}
					JOINT R_Toe2
					{
						OFFSET 0.355980 3.902462 -12.541145
						CHANNELS 3 Xrotation Yrotation Zrotation
						End Site
						{
							OFFSET -3.916199 -12.806131 1.542559
						}
					}
					JOINT R_Toe3
					{
						OFFSET 4.603411 3.183941 -12.435266
						CHANNELS 3 Xrotation Yrotation Zrotation
						End Site
						{
							OFFSET -3.810825 -12.587429 2.957591
						}
					}
					JOINT R_Toe4
					{
						OFFSET 7.144323 6.231503 -10.072779
						CHANNELS 3 Xrotation Yrotation Zrotation
						End Site
						{
							OFFSET -3.810825 -12.587433 2.957584
						}
					}
				}
			}
		}
	}
}
MOTION
Frames: 4
Frame Time: 0.033333
0.000000 0.000000 51.998257 0.000000 -0.000000 0.000044 -8.845676 -0.000092 0.000014 11.515247 -0.797009 -2.705798 2.683084 -0.797017 -2.705808 5.441394 -0.797019 -2.705806 -1.600815 -0.797014 -2.705820 5.224768 -1.908536 -8.271846 -0.802246 -1.908535 -8.271865 11.258109 9.892864 11.610899 -16.787948 -0.000045 0.000056 -5.251323 -0.000012 0.000019 0.000018 -0.000000 -0.000000 -0.000008 0.000006 -0.000017 0.004693 0.002254 -0.005467 0.000006 -0.000001 -0.000003 -0.000001 -0.000005 0.000005 0.000002 -0.000001 0.000005 0.004698 -0.002248 0.005455 -0.000000 0.000001 -0.000000 -0.000009 0.000017 -0.000002 0.000001 -0.000000 0.000001 -0.000874 4.114585 11.904650 30.357411 -15.122042 -15.812603 -18.876590 3.745282 -4.476470 -76.477403 -7.263911 -7.482295 4.814252 45.237880 32.496817 0.108383 -0.103823 0.046719 31.239882 13.715130 -10.715214 -21.103495 -3.971331 -2.962971 30.256522 6.344419 -6.448660 -32.343285 -14.390355 -8.157528 20.872343 -11.244812 -8.185808 -18.722426 -18.085395 -5.094119 18.635514 -29.682660 -0.393817 0.555234 0.804613 0.101802 -0.000622 -4.113388 -11.900712 -8.241505 7.150142 49.410261 -19.055519 -3.787820 4.513075 -37.275962 12.465691 0.411338 4.813888 -45.237825 -32.497128 0.108386 0.103827 -0.046718 31.239929 -13.715163 10.714981 -21.103475 3.971279 2.963129 30.256560 -6.344447 6.448436 -32.343299 14.390251 8.157738 20.872418 11.244832 8.185621 -18.722469 18.085345 5.094261 18.635551 29.682657 0.393681 0.555243 -0.804606 -0.101812 -12.820642 -0.000004 0.000031 -8.689280 -1.231629 3.950023 3.556071 -0.190859 4.130722 10.255905 -0.524742 -5.348528 8.080388 -0.217679 -5.341317 3.146832 -0.198738 -9.484004 2.255912 -0.393526 -9.446059 3.248223 -0.487295 7.192743 2.527691 0.382242 7.068351 2.504827 0.702949 7.052488 -27.411807 -10.895235 11.830526 -10.429383 -0.073265 -2.409406 -27.248854 -19.732789 -8.460081 -2.318593 -4.298942 -0.446772 8.087296 0.872398 0.413570 17.133828 6.636273 3.687462 20.253538 6.370518 -9.434380 -1.696114 7.323596 -8.103844 -11.865300 6.999252 -18.225612 -11.334473 0.058886 2.618422 -43.150096 17.416713 11.347858 -2.318606 4.298943 0.446770 8.087299 -0.872372 -0.413611 17.133827 -6.636228 -3.687518 20.253555 -6.370448 9.434297 -1.696093 -7.323605 8.103845 
-0.000000 0.000000 51.995823 0.000000 -0.000000 0.000044 -8.849795 -0.000090 0.000000 11.514381 -0.796313 -2.706051 2.686302 -0.796320 -2.706067 5.444611 -0.796322 -2.706066 -1.601679 -0.796317 -2.706067 5.238812 -1.904447 -8.270706 -0.795352 -1.904446 -8.270722 11.242752 9.895089 11.666048 -16.823644 -0.000046 0.000058 -5.300053 -0.000012 0.000020 0.000019 -0.000000 -0.000001 -0.000008 0.000007 -0.000018 -0.024256 -0.023968 0.280567 0.000006 0.000005 0.000003 0.000007 -0.000000 0.000009 0.000001 -0.000001 0.000005 -0.024262 0.023978 -0.280580 -0.000000 -0.000000 -0.000003 -0.000010 0.000011 0.000003 0.000002 -0.000000 0.000001 -0.000853 4.029663 11.904702 30.281060 -14.998665 -15.902598 -18.699837 3.703435 -4.440354 -76.564529 -7.229578 -7.480812 4.814250 45.237883 32.496814 0.108384 -0.103826 0.046720 31.239878 13.715133 -10.715215 -21.103488 -3.971328 -2.962971 30.256522 6.344421 -6.448662 -32.343285 -14.390357 -8.157528 20.872339 -11.244812 -8.185808 -18.722430 -18.085397 -5.094117 18.635510 -29.682660 -0.393822 0.555232 0.804616 0.101799 -0.000574 -4.108680 -11.899535 -8.242214 7.140813 49.411241 -19.049830 -3.786470 4.511914 -37.277851 12.465122 0.413146 4.813889 -45.237825 -32.497125 0.108383 0.103831 -0.046712 31.239929 -13.715162 10.714980 -21.103464 3.971274 2.963137 30.256560 -6.344445 6.448433 -32.343299 14.390254 8.157735 20.872418 11.244829 8.185623 -18.722465 18.085345 5.094266 18.635553 29.682660 0.393679 0.555247 -0.804608 -0.101812 -12.817714 -0.000004 0.000031 -8.687595 -1.231629 3.950022 3.557391 -0.190855 4.130723 10.257194 -0.525207 -5.348529 8.078708 -0.217785 -5.341317 3.145589 -0.198803 -9.484005 2.254510 -0.394057 -9.446066 3.246964 -0.488115 7.192719 2.526528 0.381620 7.068359 2.504829 0.702950 7.052490 -27.416620 -10.898196 11.826723 -10.415808 -0.073456 -2.406272 -27.258670 -19.731619 -8.461418 -2.318594 -4.298943 -0.446774 8.087297 0.872399 0.413574 17.133825 6.636278 3.687463 20.253539 6.370518 -9.434377 -1.696114 7.323599 -8.103844 -11.869317 7.003139 -18.223177 -11.320664 0.059133 2.615237 -43.184277 17.412135 11.353368 -2.318604 4.298943 0.446770 8.087299 -0.872369 -0.413609 17.133827 -6.636229 -3.687519 20.253553 -6.370449 9.434299 -1.696091 -7.323605 8.103846 
-0.000000 0.000000 51.990234 0.000000 -0.000000 0.000044 -8.859480 -0.000092 0.000014 11.513197 -0.795320 -2.704847 2.693550 -0.795328 -2.704857 5.451862 -0.795329 -2.704849 -1.602735 -0.795325 -2.704868 5.252829 -1.901892 -8.271961 -0.785679 -1.901891 -8.271982 11.225004 9.892108 11.707193 -16.854339 -0.000045 0.000057 -5.347174 -0.000014 0.000021 0.000018 -0.000001 -0.000001 -0.000005 0.000007 -0.000020 -0.046459 -0.045923 0.537081 0.000012 0.000005 0.000005 0.000008 -0.000000 0.000011 0.000005 -0.000001 0.000008 -0.046468 0.045939 -0.537106 0.000002 0.000003 -0.000001 -0.000006 0.000013 0.000005 -0.000000 0.000000 0.000001 -0.000877 3.942124 11.904807 30.201246 -14.872967 -15.990055 -18.532065 3.663819 -4.405958 -76.642406 -7.199416 -7.487627 4.814240 45.237876 32.496807 0.108380 -0.103827 0.046723 31.239875 13.715134 -10.715213 -21.103486 -3.971326 -2.962971 30.256519 6.344421 -6.448664 -32.343278 -14.390351 -8.157532 20.872336 -11.244813 -8.185809 -18.722431 -18.085403 -5.094116 18.635510 -29.682660 -0.393822 0.555230 0.804615 0.101798 -0.000488 -4.095992 -11.898441 -8.240587 7.126449 49.405466 -19.040249 -3.784192 4.509973 -37.288021 12.462349 0.415846 4.813887 -45.237828 -32.497132 0.108380 0.103829 -0.046716 31.239929 -13.715162 10.714981 -21.103466 3.971273 2.963132 30.256553 -6.344446 6.448434 -32.343299 14.390252 8.157739 20.872419 11.244829 8.185627 -18.722465 18.085340 5.094263 18.635546 29.682657 0.393680 0.555248 -0.804608 -0.101808 -12.810220 -0.000004 0.000031 -8.683737 -1.231629 3.950029 3.560099 -0.190902 4.130723 10.259867 -0.525811 -5.348527 8.075287 -0.217847 -5.341316 3.143277 -0.198897 -9.483994 2.252095 -0.394749 -9.446071 3.244728 -0.489265 7.192725 2.524319 0.380797 7.068398 2.504829 0.702949 7.052490 -27.427714 -10.904546 11.817876 -10.379886 -0.073956 -2.397969 -27.280319 -19.729288 -8.464485 -2.318595 -4.298936 -0.446772 8.087297 0.872403 0.413572 17.133830 6.636277 3.687463 20.253538 6.370515 -9.434377 -1.696115 7.323600 -8.103844 -11.878158 7.011261 -18.216292 -11.284121 0.059773 2.606797 -43.174643 17.413152 11.350018 -2.318606 4.298942 0.446769 8.087300 -0.872374 -0.413613 17.133823 -6.636230 -3.687520 20.253557 -6.370453 9.434299 -1.696092 -7.323611 8.103844 
0.000000 0.000000 51.981594 0.000000 -0.000000 0.000044 -8.874583 -0.000093 0.000014 11.511644 -0.794016 -2.702163 2.704682 -0.794024 -2.702165 5.462994 -0.794025 -2.702163 -1.603987 -0.794020 -2.702170 5.266613 -1.900738 -8.275386 -0.773587 -1.900739 -8.275411 11.204907 9.884873 11.737967 -16.879928 -0.000046 0.000057 -5.392323 -0.000013 0.000020 0.000021 -0.000001 -0.000001 -0.000004 0.000007 -0.000020 -0.066595 -0.065965 0.770209 0.000007 0.000005 0.000006 0.000004 -0.000000 0.000009 0.000005 -0.000001 0.000002 -0.066610 0.065981 -0.770256 -0.000000 -0.000000 -0.000003 -0.000013 0.000013 -0.000001 -0.000001 0.000000 0.000002 -0.000895 3.852097 11.905039 30.120243 -14.746151 -16.083226 -18.373702 3.626527 -4.373383 -76.711323 -7.173753 -7.499129 4.814246 45.237880 32.496824 0.108381 -0.103823 0.046719 31.239882 13.715135 -10.715215 -21.103490 -3.971326 -2.962975 30.256522 6.344419 -6.448666 -32.343285 -14.390355 -8.157536 20.872343 -11.244814 -8.185805 -18.722424 -18.085395 -5.094113 18.635519 -29.682663 -0.393825 0.555236 0.804613 0.101800 -0.000464 -4.075630 -11.897612 -8.236281 7.107632 49.392281 -19.026885 -3.781016 4.507250 -37.307074 12.457129 0.419505 4.813891 -45.237828 -32.497125 0.108383 0.103823 -0.046712 31.239933 -13.715165 10.714983 -21.103473 3.971278 2.963137 30.256560 -6.344446 6.448436 -32.343299 14.390252 8.157745 20.872418 11.244832 8.185625 -18.722471 18.085344 5.094265 18.635548 29.682660 0.393684 0.555243 -0.804606 -0.101810 -12.798293 -0.000004 0.000031 -8.677788 -1.231629 3.950029 3.564144 -0.191001 4.130720 10.263888 -0.526549 -5.348530 8.070187 -0.217865 -5.341317 3.139933 -0.199022 -9.484002 2.248699 -0.395597 -9.446066 3.241546 -0.490736 7.192743 2.521096 0.379776 7.068457 2.504827 0.702949 7.052489 -27.444807 -10.914109 11.804086 -10.322470 -0.074739 -2.384705 -27.304141 -19.726543 -8.467272 -2.318594 -4.298933 -0.446775 8.087297 0.872399 0.413568 17.133830 6.636281 3.687462 20.253538 6.370524 -9.434381 -1.696113 7.323598 -8.103845 -11.891540 7.023448 -18.205125 -11.225673 0.060788 2.593309 -43.200762 17.409473 11.352554 -2.318604 4.298946 0.446768 8.087304 -0.872368 -0.413614 17.133828 -6.636224 -3.687519 20.253557 -6.370446 9.434294 -1.696091 -7.323605 8.103844 
